# xmcd
#
# Track frame offsets:
#	150
#	13132
#	26627
#	40071
#	53039
#	66011
#	78409
#	92014
#	104048
#	116809
#	130236
#	141638
#	153682
#	164970
#	176941
#	189790
#	201490
#	212660
#	224467
#	235364
#	247140
#	257570
#	268279
#	279391
#	291049
#	301824
#	314318
#	324710
#	335077
#
# Disc length: 4609 seconds
# Revision: 4
# Processed by: cddbd v1.5.2PL0 Copyright (c) Steve Scherf et al.
# Submitted via: dBpowerAMP V12.0
#
DISCID=d311ff1d
DTITLE=Robert Johnson - The Road To Robert Johnson And Beyond, Disc B
DYEAR=2007
DGENRE=Blues
TTITLE0=Kind Hearted Woman Blues
TTITLE1=I Believe I'll Dust My Broom
TTITLE2=Sweet Home Chicago
TTITLE3=Ramblin' on My Mind
TTITLE4=When You Got a Good Friend
TTITLE5=Come on in My Kitchen
TTITLE6=Terraplane Blues
TTITLE7=Phonograph Blues
TTITLE8=32-20 Blues
TTITLE9=They're Red Hot
TTITLE10=Dead Shrimp Blues
TTITLE11=Cross Road Blues
TTITLE12=Walkin' Blues
TTITLE13=Last Fair Deal Gone Down
TTITLE14=Preachin' Blues
TTITLE15=If I Had Possession Over Judgement Day
TTITLE16=Stones in My Passway
TTITLE17=I'm a Steady Rollin' Man
TTITLE18=From Four Until Late
TTITLE19=Hell Hound on My Trail
TTITLE20=Little Queen of Spades
TTITLE21=Malted Milk
TTITLE22=Drunken Hearted Man
TTITLE23=Me and the Devil Blues
TTITLE24=Stop Breakin' Down Blues
TTITLE25=Travelin' Riverside Blues
TTITLE26=Honeymoon Blues
TTITLE27=Love in Vain
TTITLE28=Milkcow's Calf Blues
EXTD=
EXTT0=
EXTT1=
EXTT2=
EXTT3=
EXTT4=
EXTT5=
EXTT6=
EXTT7=
EXTT8=
EXTT9=
EXTT10=
EXTT11=
EXTT12=
EXTT13=
EXTT14=
EXTT15=
EXTT16=
EXTT17=
EXTT18=
EXTT19=
EXTT20=
EXTT21=
EXTT22=
EXTT23=
EXTT24=
EXTT25=
EXTT26=
EXTT27=
EXTT28=
PLAYORDER=
